<?xml version="1.0" encoding="utf-8"?>
<!-- Generator: Adobe Illustrator 24.0.2, SVG Export Plug-In . SVG Version: 6.00 Build 0)  -->
<svg version="1.1" id="Layer_1" xmlns="http://www.w3.org/2000/svg" xmlns:xlink="http://www.w3.org/1999/xlink" x="0px" y="0px"
	 viewBox="0 0 20 50" style="enable-background:new 0 0 20 50;" xml:space="preserve">
<style type="text/css">
	.st0{fill:none;stroke:url(#SVGID_1_);stroke-miterlimit:10;}
	.st1{fill:#D969A5;stroke:#FFFFFF;stroke-width:0.25;stroke-miterlimit:10;}
	.st2{fill:url(#SVGID_2_);}
	.st3{fill:url(#SVGID_3_);}
	.st4{fill:url(#SVGID_4_);}
	.st5{fill:url(#SVGID_5_);}
	.st6{fill:url(#SVGID_6_);}
	.st7{fill:url(#SVGID_7_);}
	.st8{fill:url(#SVGID_8_);}
</style>
<linearGradient id="SVGID_1_" gradientUnits="userSpaceOnUse" x1="3.8999" y1="25.2768" x2="16.5539" y2="25.2768">
	<stop  offset="0" style="stop-color:#FFFFFF"/>
	<stop  offset="1" style="stop-color:#9ECD9B"/>
</linearGradient>
<path class="st0" d="M14.5-0.18c0,0-12.56,2.31-8.26,7.08c3.77,3.88,11,5.03,8.96,8.58c0,0-13.85,0.84-9.44,4.86
	c2.74,2.55,10.54,4.04,7.96,10.45c0,0-13.39,3.19-8.06,6.71c0.7,0.7,12.85,5.05,9.95,8.12c-5.45,5.24-5.45,5.24-5.45,5.24"/>
<path class="st1" d="M9.83,5.4c0,0-0.15,3.31-3.71,1.85c0.03,0-1.49-2.15,0.98-3.22c0,0,0.82-1.3,2.41-0.7
	C9.6,3.34,10.74,3.53,9.83,5.4z"/>
<path class="st1" d="M10.73,7.38c0,0-1.56-2.92-4.14-0.07c0.02-0.02-0.42,2.58,2.27,2.48c0,0,1.3,0.82,2.48-0.41
	C11.41,9.33,12.36,8.66,10.73,7.38z"/>
<path class="st1" d="M7.32,3.16c0,0,2.4,2.28-1.02,4.01c0.02-0.02-2.6-0.28-1.8-2.84c0,0-0.45-1.47,1.05-2.28
	C5.61,1.99,6.5,1.26,7.32,3.16z"/>
<path class="st1" d="M9.3,10.61c0,0,1.51-2.95-2.31-3.44c0.03,0.01-2.36,1.13-0.74,3.28c0,0,0.07,1.54,1.75,1.8
	C8.08,12.29,9.17,12.68,9.3,10.61z"/>
<path class="st1" d="M4.84,10.35c0,0,3.3-0.21,1.78-3.74c0,0.03-2.18-1.45-3.2,1.04c0,0-1.29,0.85-0.65,2.43
	C2.77,10.16,2.99,11.3,4.84,10.35z"/>
<path class="st1" d="M2.41,6.64c0,0,1.41,3,4.13,0.28C6.52,6.94,7.09,4.36,4.4,4.33c0,0-1.26-0.89-2.5,0.28
	C1.83,4.65,0.86,5.27,2.41,6.64z"/>
<radialGradient id="SVGID_2_" cx="6.9404" cy="6.902" r="0.6997" gradientUnits="userSpaceOnUse">
	<stop  offset="0" style="stop-color:#FFFFFF"/>
	<stop  offset="1" style="stop-color:#F196BF"/>
</radialGradient>
<circle class="st2" cx="6.94" cy="6.9" r="0.7"/>
<path class="st1" d="M18.09,13.28c0,0-0.15,3.31-3.71,1.85c0.03,0-1.49-2.15,0.98-3.22c0,0,0.82-1.3,2.41-0.7
	C17.86,11.22,19,11.41,18.09,13.28z"/>
<path class="st1" d="M18.99,15.26c0,0-1.56-2.92-4.14-0.07c0.02-0.02-0.42,2.58,2.27,2.48c0,0,1.3,0.82,2.48-0.41
	C19.67,17.21,20.61,16.54,18.99,15.26z"/>
<path class="st1" d="M15.58,11.04c0,0,2.4,2.28-1.02,4.01c0.02-0.02-2.6-0.28-1.8-2.84c0,0-0.45-1.47,1.05-2.28
	C13.87,9.87,14.76,9.14,15.58,11.04z"/>
<path class="st1" d="M17.56,18.49c0,0,1.51-2.95-2.31-3.44c0.03,0.01-2.36,1.13-0.74,3.28c0,0,0.07,1.54,1.75,1.8
	C16.34,20.17,17.43,20.56,17.56,18.49z"/>
<path class="st1" d="M13.1,18.23c0,0,3.3-0.21,1.78-3.74c0,0.03-2.18-1.45-3.2,1.04c0,0-1.29,0.85-0.65,2.43
	C11.03,18.04,11.25,19.18,13.1,18.23z"/>
<path class="st1" d="M10.67,14.52c0,0,1.41,3,4.13,0.28c-0.02,0.01,0.55-2.56-2.14-2.6c0,0-1.26-0.89-2.5,0.28
	C10.09,12.53,9.12,13.15,10.67,14.52z"/>
<radialGradient id="SVGID_3_" cx="15.1994" cy="14.7823" r="0.6997" gradientUnits="userSpaceOnUse">
	<stop  offset="0" style="stop-color:#FFFFFF"/>
	<stop  offset="1" style="stop-color:#F196BF"/>
</radialGradient>
<circle class="st3" cx="15.2" cy="14.78" r="0.7"/>
<path class="st1" d="M9.46,18.5c0,0-0.15,3.31-3.71,1.85c0.03,0-1.49-2.15,0.98-3.22c0,0,0.82-1.3,2.41-0.7
	C9.23,16.44,10.37,16.64,9.46,18.5z"/>
<path class="st1" d="M10.37,20.48c0,0-1.56-2.92-4.14-0.07C6.25,20.4,5.81,23,8.5,22.89c0,0,1.3,0.82,2.48-0.41
	C11.05,22.44,11.99,21.77,10.37,20.48z"/>
<path class="st1" d="M6.95,16.27c0,0,2.4,2.28-1.02,4.01c0.02-0.02-2.6-0.28-1.8-2.84c0,0-0.45-1.47,1.05-2.28
	C5.24,15.09,6.14,14.36,6.95,16.27z"/>
<path class="st1" d="M8.93,23.72c0,0,1.51-2.95-2.31-3.44c0.03,0.01-2.36,1.13-0.74,3.28c0,0,0.07,1.54,1.75,1.8
	C7.72,25.39,8.8,25.78,8.93,23.72z"/>
<path class="st1" d="M4.47,23.46c0,0,3.3-0.21,1.78-3.74c0,0.03-2.18-1.45-3.2,1.04c0,0-1.29,0.85-0.65,2.43
	C2.41,23.27,2.63,24.4,4.47,23.46z"/>
<path class="st1" d="M2.04,19.74c0,0,1.41,3,4.13,0.28c-0.02,0.01,0.55-2.56-2.14-2.6c0,0-1.26-0.89-2.5,0.28
	C1.47,17.75,0.49,18.37,2.04,19.74z"/>
<radialGradient id="SVGID_4_" cx="6.5737" cy="20.0057" r="0.6997" gradientUnits="userSpaceOnUse">
	<stop  offset="0" style="stop-color:#FFFFFF"/>
	<stop  offset="1" style="stop-color:#F196BF"/>
</radialGradient>
<circle class="st4" cx="6.57" cy="20.01" r="0.7"/>
<path class="st1" d="M17.42,28.95c0,0-0.15,3.31-3.71,1.85c0.03,0-1.49-2.15,0.98-3.22c0,0,0.82-1.3,2.41-0.7
	C17.19,26.89,18.33,27.09,17.42,28.95z"/>
<path class="st1" d="M18.33,30.93c0,0-1.56-2.92-4.14-0.07c0.02-0.02-0.42,2.58,2.27,2.48c0,0,1.3,0.82,2.48-0.41
	C19.01,32.88,19.95,32.21,18.33,30.93z"/>
<path class="st1" d="M14.91,26.71c0,0,2.4,2.28-1.02,4.01c0.02-0.02-2.6-0.28-1.8-2.84c0,0-0.45-1.47,1.05-2.28
	C13.2,25.54,14.1,24.81,14.91,26.71z"/>
<path class="st1" d="M16.89,34.16c0,0,1.51-2.95-2.31-3.44c0.03,0.01-2.36,1.13-0.74,3.28c0,0,0.07,1.54,1.75,1.8
	C15.67,35.84,16.76,36.23,16.89,34.16z"/>
<path class="st1" d="M12.43,33.9c0,0,3.3-0.21,1.78-3.74c0,0.03-2.18-1.45-3.2,1.04c0,0-1.29,0.85-0.65,2.43
	C10.37,33.71,10.59,34.85,12.43,33.9z"/>
<path class="st1" d="M10,30.19c0,0,1.41,3,4.13,0.28c-0.02,0.01,0.55-2.56-2.14-2.6c0,0-1.26-0.89-2.5,0.28
	C9.42,28.2,8.45,28.82,10,30.19z"/>
<radialGradient id="SVGID_5_" cx="14.5329" cy="30.4525" r="0.6997" gradientUnits="userSpaceOnUse">
	<stop  offset="0" style="stop-color:#FFFFFF"/>
	<stop  offset="1" style="stop-color:#F196BF"/>
</radialGradient>
<circle class="st5" cx="14.53" cy="30.45" r="0.7"/>
<path class="st1" d="M8.54,36.7c0,0-0.15,3.31-3.71,1.85c0.03,0-1.49-2.15,0.98-3.22c0,0,0.82-1.3,2.41-0.7
	C8.32,34.64,9.45,34.84,8.54,36.7z"/>
<path class="st1" d="M9.45,38.68c0,0-1.56-2.92-4.14-0.07c0.02-0.02-0.42,2.58,2.27,2.48c0,0,1.3,0.82,2.48-0.41
	C10.13,40.64,11.07,39.97,9.45,38.68z"/>
<path class="st1" d="M6.03,34.47c0,0,2.4,2.28-1.02,4.01c0.02-0.02-2.6-0.28-1.8-2.84c0,0-0.45-1.47,1.05-2.28
	C4.32,33.29,5.22,32.56,6.03,34.47z"/>
<path class="st1" d="M8.01,41.92c0,0,1.51-2.95-2.31-3.44c0.03,0.01-2.36,1.13-0.74,3.28c0,0,0.07,1.54,1.75,1.8
	C6.8,43.59,7.88,43.99,8.01,41.92z"/>
<path class="st1" d="M3.55,41.66c0,0,3.3-0.21,1.78-3.74c0,0.03-2.18-1.45-3.2,1.04c0,0-1.29,0.85-0.65,2.43
	C1.49,41.47,1.71,42.6,3.55,41.66z"/>
<path class="st1" d="M1.12,37.94c0,0,1.41,3,4.13,0.28c-0.02,0.01,0.55-2.56-2.14-2.6c0,0-1.26-0.89-2.5,0.28
	C0.55,35.96-0.43,36.58,1.12,37.94z"/>
<radialGradient id="SVGID_6_" cx="5.654" cy="38.2065" r="0.6997" gradientUnits="userSpaceOnUse">
	<stop  offset="0" style="stop-color:#FFFFFF"/>
	<stop  offset="1" style="stop-color:#F196BF"/>
</radialGradient>
<circle class="st6" cx="5.65" cy="38.21" r="0.7"/>
<path class="st1" d="M18.5,44.12c0,0-0.15,3.31-3.71,1.85c0.03,0-1.49-2.15,0.98-3.22c0,0,0.82-1.3,2.41-0.7
	C18.27,42.06,19.41,42.26,18.5,44.12z"/>
<path class="st1" d="M19.4,46.1c0,0-1.56-2.92-4.14-0.07c0.02-0.02-0.42,2.58,2.27,2.48c0,0,1.3,0.82,2.48-0.41
	C20.08,48.06,21.02,47.39,19.4,46.1z"/>
<path class="st1" d="M15.99,41.89c0,0,2.4,2.28-1.02,4.01c0.02-0.02-2.6-0.28-1.8-2.84c0,0-0.45-1.47,1.05-2.28
	C14.28,40.71,15.17,39.98,15.99,41.89z"/>
<path class="st1" d="M17.97,49.34c0,0,1.51-2.95-2.31-3.44c0.03,0.01-2.36,1.13-0.74,3.28c0,0,0.07,1.54,1.75,1.8
	C16.75,51.01,17.84,51.4,17.97,49.34z"/>
<path class="st1" d="M13.51,49.08c0,0,3.3-0.21,1.78-3.74c0,0.03-2.18-1.45-3.2,1.04c0,0-1.29,0.85-0.65,2.43
	C11.44,48.89,11.66,50.02,13.51,49.08z"/>
<path class="st1" d="M11.08,45.36c0,0,1.41,3,4.13,0.28c-0.02,0.01,0.55-2.56-2.14-2.6c0,0-1.26-0.89-2.5,0.28
	C10.5,43.37,9.52,43.99,11.08,45.36z"/>
<radialGradient id="SVGID_7_" cx="15.6085" cy="45.6256" r="0.6997" gradientUnits="userSpaceOnUse">
	<stop  offset="0" style="stop-color:#FFFFFF"/>
	<stop  offset="1" style="stop-color:#F196BF"/>
</radialGradient>
<circle class="st7" cx="15.61" cy="45.63" r="0.7"/>
<path class="st1" d="M17.39-1.69c0,0-0.15,3.31-3.71,1.85c0.03,0-1.49-2.15,0.98-3.22c0,0,0.82-1.3,2.41-0.7
	C17.16-3.75,18.3-3.55,17.39-1.69z"/>
<path class="st1" d="M18.3,0.29c0,0-1.56-2.92-4.14-0.07c0.02-0.02-0.42,2.58,2.27,2.48c0,0,1.3,0.82,2.48-0.41
	C18.98,2.25,19.92,1.58,18.3,0.29z"/>
<path class="st1" d="M14.88-3.92c0,0,2.4,2.28-1.02,4.01c0.02-0.02-2.6-0.28-1.8-2.84c0,0-0.45-1.47,1.05-2.28
	C13.17-5.09,14.07-5.83,14.88-3.92z"/>
<path class="st1" d="M16.86,3.53c0,0,1.51-2.95-2.31-3.44c0.03,0.01-2.36,1.13-0.74,3.28c0,0,0.07,1.54,1.75,1.8
	C15.65,5.21,16.73,5.6,16.86,3.53z"/>
<path class="st1" d="M12.4,3.27c0,0,3.3-0.21,1.78-3.74c0,0.03-2.18-1.45-3.2,1.04c0,0-1.29,0.85-0.65,2.43
	C10.34,3.08,10.56,4.21,12.4,3.27z"/>
<path class="st1" d="M9.97-0.44c0,0,1.41,3,4.13,0.28c-0.02,0.01,0.55-2.56-2.14-2.6c0,0-1.26-0.89-2.5,0.28
	C9.4-2.43,8.42-1.81,9.97-0.44z"/>
<radialGradient id="SVGID_8_" cx="14.5037" cy="-0.1821" r="0.6997" gradientUnits="userSpaceOnUse">
	<stop  offset="0" style="stop-color:#FFFFFF"/>
	<stop  offset="1" style="stop-color:#F196BF"/>
</radialGradient>
<circle class="st8" cx="14.5" cy="-0.18" r="0.7"/>
</svg>
