<svg id="Layer_1" data-name="Layer 1" xmlns="http://www.w3.org/2000/svg" viewBox="0 0 126.14 118.26"><defs><style>.cls-1{fill:#fff;}.cls-1,.cls-2,.cls-4{stroke:#1d1d1b;stroke-miterlimit:10;}.cls-2,.cls-4{fill:none;}.cls-3{fill:#1d1d1b;}.cls-4{stroke-width:5px;}</style></defs><title>project chantal3</title><path class="cls-1" d="M162.28,121l-49.2,96.84Z" transform="translate(-106.64 -120.8)"/><line class="cls-1" x1="68.3" y1="25.99" x2="55.64" y2="0.23"/><path class="cls-2" d="M215.67,134.9c-29.47-1.8-52.41,19.72-53.44,41.1-1.15,23.6,24.3,49.41,57.24,45.34" transform="translate(-106.64 -120.8)"/><path class="cls-3" d="M106.64,227.85h1.81c2.2,0,3.39,1.49,3.39,4.14s-1.19,4.22-3.35,4.22h-1.85Zm1.74,7.48c1.66,0,2.49-1.22,2.49-3.34s-.83-3.26-2.49-3.26h-.8v6.6Z" transform="translate(-106.64 -120.8)"/><path class="cls-3" d="M113.13,233.1a3,3,0,0,1,2.77-3.24c1.57,0,2.48,1.16,2.48,2.91a5.27,5.27,0,0,1,0,.63h-4.59v-.81h4l-.23.29c0-1.46-.64-2.19-1.64-2.19s-1.87.87-1.87,2.41.91,2.42,2.12,2.42a2.68,2.68,0,0,0,1.65-.59l.34.69a3.41,3.41,0,0,1-2.1.74A3,3,0,0,1,113.13,233.1Z" transform="translate(-106.64 -120.8)"/><path class="cls-3" d="M119.87,235.39l.43-.7a3.54,3.54,0,0,0,2.35.84c.92,0,1.37-.43,1.37-.95s-.22-.81-1.69-1.15-2.12-.88-2.12-1.81.77-1.76,2.25-1.76a3.72,3.72,0,0,1,2.19.79l-.44.68a2.94,2.94,0,0,0-1.83-.65c-.91,0-1.25.42-1.25.89s.47.76,1.59,1c1.8.45,2.23,1,2.23,1.91s-.86,1.85-2.41,1.85A4.35,4.35,0,0,1,119.87,235.39Z" transform="translate(-106.64 -120.8)"/><path class="cls-3" d="M129.3,230.87h-2.51V230h3.44v6.19h-.93Zm-.37-3a.74.74,0,1,1,1.48,0,.74.74,0,1,1-1.48,0Z" transform="translate(-106.64 -120.8)"/><path class="cls-3" d="M133.29,237.34a1.73,1.73,0,0,1,.9-1.37v-.05a1.15,1.15,0,0,1-.56-1,1.51,1.51,0,0,1,.65-1.16v-.05a2.09,2.09,0,0,1-.67-1.61,2.12,2.12,0,0,1,2.13-2.22,1.81,1.81,0,0,1,.8.16h2.25v.85h-1.41a2,2,0,0,1,.46,1.25,2,2,0,0,1-2.1,2.13,2.19,2.19,0,0,1-.92-.23.88.88,0,0,0-.42.71c0,.48.41.71,1.13.71h1.22c1.39,0,2.06.41,2.06,1.46s-1.17,2.16-3,2.16C134.21,239.06,133.29,238.44,133.29,237.34Zm4.62-.28c0-.58-.42-.75-1.24-.75h-1.06a2.9,2.9,0,0,1-.83-.1,1.21,1.21,0,0,0-.69,1c0,.65.61,1.06,1.77,1.06S137.91,237.7,137.91,237.06Zm-.92-5a1.27,1.27,0,1,0-1.25,1.46A1.32,1.32,0,0,0,137,232.08Z" transform="translate(-106.64 -120.8)"/><path class="cls-3" d="M140.23,230H141l.08,1h.05a2.73,2.73,0,0,1,2-1.2c1.29,0,1.88.87,1.88,2.5v3.85h-.93V232.5c0-1.17-.36-1.72-1.24-1.72-.65,0-1.08.37-1.71,1.11v4.32h-.93Z" transform="translate(-106.64 -120.8)"/><path class="cls-3" d="M154.51,235.52h0l-.09.69h-.73v-9.07h.92v2.47l0,1.2h0a2.53,2.53,0,0,1,1.82-.95c1.47,0,2.26,1.24,2.26,3.15,0,2.11-1.16,3.35-2.45,3.35A2.53,2.53,0,0,1,154.51,235.52Zm3.18-2.5c0-1.36-.45-2.27-1.53-2.27a2.25,2.25,0,0,0-1.59.92v3.09a2.17,2.17,0,0,0,1.47.71C157,235.47,157.69,234.55,157.69,233Z" transform="translate(-106.64 -120.8)"/><path class="cls-3" d="M160.06,238.74l.19-.84a1.63,1.63,0,0,0,.49.09c.76,0,1.22-.55,1.49-1.31l.15-.46-2.52-6.2h.94l1.32,3.41c.21.55.44,1.2.67,1.8h0l.58-1.8,1.17-3.41h.9l-2.4,6.7c-.41,1.22-1.06,2.15-2.3,2.15A2,2,0,0,1,160.06,238.74Z" transform="translate(-106.64 -120.8)"/><path class="cls-3" d="M173.45,232c0-2.69,1.37-4.33,3.28-4.33a2.61,2.61,0,0,1,2,1l-.54.67a1.87,1.87,0,0,0-1.48-.75c-1.39,0-2.31,1.29-2.31,3.36s.92,3.42,2.31,3.42a2,2,0,0,0,1.65-.92l.53.65a2.69,2.69,0,0,1-2.26,1.21C174.84,236.36,173.45,234.76,173.45,232Z" transform="translate(-106.64 -120.8)"/><path class="cls-3" d="M181.88,235.28a.92.92,0,1,1,.9,1.08A1,1,0,0,1,181.88,235.28Z" transform="translate(-106.64 -120.8)"/><path class="cls-3" d="M186.86,232c0-2.69,1.38-4.33,3.29-4.33a2.61,2.61,0,0,1,2,1l-.54.67a1.86,1.86,0,0,0-1.47-.75c-1.4,0-2.32,1.29-2.32,3.36s.92,3.42,2.32,3.42a2,2,0,0,0,1.64-.92l.53.65a2.69,2.69,0,0,1-2.26,1.21C188.25,236.36,186.86,234.76,186.86,232Z" transform="translate(-106.64 -120.8)"/><path class="cls-3" d="M195.29,235.28a.92.92,0,1,1,1.81,0,.92.92,0,1,1-1.81,0Z" transform="translate(-106.64 -120.8)"/><path class="cls-3" d="M206.72,227.85h1l1.17,4.51c.26,1,.44,1.78.7,2.75h.05c.27-1,.46-1.77.7-2.75l1.18-4.51h1l-2.33,8.36h-1.09Z" transform="translate(-106.64 -120.8)"/><path class="cls-3" d="M213.85,234.6c0-1.39,1.14-2.06,4-2.32,0-.84-.4-1.55-1.45-1.55a3.44,3.44,0,0,0-1.89.74l-.37-.72a4.42,4.42,0,0,1,2.42-.89c1.49,0,2.21,1,2.21,2.55v3.8H218l-.08-.84h0a3.43,3.43,0,0,1-2.13,1A1.73,1.73,0,0,1,213.85,234.6Zm4,0V233c-2.33.21-3,.73-3,1.55s.56,1,1.18,1A2.79,2.79,0,0,0,217.8,234.59Z" transform="translate(-106.64 -120.8)"/><path class="cls-3" d="M222.41,234.13V228h-1.92v-.85h2.85v7.07c0,.89.42,1.27,1.07,1.27a2.22,2.22,0,0,0,1-.28l.23.79a3,3,0,0,1-1.45.37C223.05,236.36,222.41,235.6,222.41,234.13Z" transform="translate(-106.64 -120.8)"/><path class="cls-3" d="M227.54,227.14h.93v6.12h.05l2.91-3.24h1.06l-4,4.51v1.68h-.93Zm2.09,5.78.56-.69,2.59,4h-1Z" transform="translate(-106.64 -120.8)"/><path class="cls-4" d="M223.33,134.9c-29.48-1.8-52.41,19.72-53.45,41.1-1.14,23.6,24.31,49.41,57.24,45.34" transform="translate(-106.64 -120.8)"/><line class="cls-1" x1="104.23" y1="100.97" x2="74.05" y2="37.18"/></svg>