<svg xmlns="http://www.w3.org/2000/svg" xmlns:xlink="http://www.w3.org/1999/xlink" viewBox="0 0 20.34 56.57"><defs><style>.a{fill:none;stroke:url(#a);}.a,.b{stroke-miterlimit:10;}.b{fill:#fff4a4;stroke:#fff;stroke-width:0.25px;}.c{fill:url(#b);}.d{fill:url(#c);}.e{fill:url(#d);}.f{fill:url(#e);}.g{fill:url(#f);}.h{fill:url(#g);}.i{fill:url(#h);}</style><linearGradient id="a" x1="3.91" y1="24.73" x2="16.56" y2="24.73" gradientTransform="matrix(1, 0, 0, -1, 0, 50)" gradientUnits="userSpaceOnUse"><stop offset="0" stop-color="#fff"/><stop offset="1" stop-color="#9ecd9b"/></linearGradient><radialGradient id="b" cx="6.94" cy="43.1" r="0.7" gradientTransform="matrix(1, 0, 0, -1, -0.12, 55.35)" gradientUnits="userSpaceOnUse"><stop offset="0" stop-color="#fff"/><stop offset="1" stop-color="#f28d3c"/></radialGradient><radialGradient id="c" cx="15.2" cy="35.22" r="0.7" xlink:href="#b"/><radialGradient id="d" cx="6.57" cy="29.99" r="0.7" xlink:href="#b"/><radialGradient id="e" cx="14.53" cy="19.55" r="0.7" xlink:href="#b"/><radialGradient id="f" cx="5.65" cy="11.79" r="0.7" xlink:href="#b"/><radialGradient id="g" cx="15.61" cy="4.37" r="0.7" xlink:href="#b"/><radialGradient id="h" cx="14.5" cy="50.18" r="0.7" xlink:href="#b"/></defs><path class="a" d="M14.5-.18S1.94,2.13,6.24,6.9c3.77,3.88,11,5,9,8.58,0,0-13.85.84-9.44,4.86,2.74,2.55,10.54,4,8,10.45,0,0-13.39,3.19-8.06,6.71.7.7,12.85,5,10,8.12l-5.45,5.24" transform="translate(-0.12 5.35)"/><path class="b" d="M9.83,5.4S9.68,8.71,6.12,7.25A2.07,2.07,0,0,1,7.1,4a2,2,0,0,1,2.41-.7C9.6,3.34,10.74,3.53,9.83,5.4Z" transform="translate(-0.12 5.35)"/><path class="b" d="M10.73,7.38S9.17,4.46,6.59,7.31A2.07,2.07,0,0,0,8.86,9.79a2,2,0,0,0,2.48-.41C11.41,9.33,12.36,8.66,10.73,7.38Z" transform="translate(-0.12 5.35)"/><path class="b" d="M7.32,3.16s2.4,2.28-1,4A2.07,2.07,0,0,1,4.5,4.33a2,2,0,0,1,1-2.28C5.61,2,6.5,1.26,7.32,3.16Z" transform="translate(-0.12 5.35)"/><path class="b" d="M9.3,10.61S10.81,7.66,7,7.17a2.07,2.07,0,0,0-.74,3.28A2,2,0,0,0,8,12.25C8.08,12.29,9.17,12.68,9.3,10.61Z" transform="translate(-0.12 5.35)"/><path class="b" d="M4.84,10.35s3.3-.21,1.78-3.74a2.07,2.07,0,0,0-3.2,1,2,2,0,0,0-.65,2.43C2.77,10.16,3,11.3,4.84,10.35Z" transform="translate(-0.12 5.35)"/><path class="b" d="M2.41,6.64s1.41,3,4.13.28A2.06,2.06,0,0,0,4.4,4.33a2,2,0,0,0-2.5.28C1.83,4.65.86,5.27,2.41,6.64Z" transform="translate(-0.12 5.35)"/><circle class="c" cx="6.82" cy="12.25" r="0.7"/><path class="b" d="M18.09,13.28s-.15,3.31-3.71,1.85a2.07,2.07,0,0,1,1-3.22,2,2,0,0,1,2.41-.7C17.86,11.22,19,11.41,18.09,13.28Z" transform="translate(-0.12 5.35)"/><path class="b" d="M19,15.26s-1.56-2.92-4.14-.07a2.07,2.07,0,0,0,2.27,2.48,2,2,0,0,0,2.48-.41C19.67,17.21,20.61,16.54,19,15.26Z" transform="translate(-0.12 5.35)"/><path class="b" d="M15.58,11s2.4,2.28-1,4a2.07,2.07,0,0,1-1.8-2.84,2,2,0,0,1,1.05-2.28C13.87,9.87,14.76,9.14,15.58,11Z" transform="translate(-0.12 5.35)"/><path class="b" d="M17.56,18.49s1.51-2.95-2.31-3.44a2.07,2.07,0,0,0-.74,3.28,2,2,0,0,0,1.75,1.8C16.34,20.17,17.43,20.56,17.56,18.49Z" transform="translate(-0.12 5.35)"/><path class="b" d="M13.1,18.23s3.3-.21,1.78-3.74a2.07,2.07,0,0,0-3.2,1A2,2,0,0,0,11,18C11,18,11.25,19.18,13.1,18.23Z" transform="translate(-0.12 5.35)"/><path class="b" d="M10.67,14.52s1.41,3,4.13.28a2.07,2.07,0,0,0-2.14-2.6,2,2,0,0,0-2.5.28C10.09,12.53,9.12,13.15,10.67,14.52Z" transform="translate(-0.12 5.35)"/><circle class="d" cx="15.08" cy="20.13" r="0.7"/><path class="b" d="M9.46,18.5s-.15,3.31-3.71,1.85a2.07,2.07,0,0,1,1-3.22,2,2,0,0,1,2.41-.7C9.23,16.44,10.37,16.64,9.46,18.5Z" transform="translate(-0.12 5.35)"/><path class="b" d="M10.37,20.48s-1.56-2.92-4.14-.07A2.06,2.06,0,0,0,8.5,22.89,2,2,0,0,0,11,22.48C11.05,22.44,12,21.77,10.37,20.48Z" transform="translate(-0.12 5.35)"/><path class="b" d="M7,16.27s2.4,2.28-1,4a2.07,2.07,0,0,1-1.8-2.84,2,2,0,0,1,1-2.28C5.24,15.09,6.14,14.36,7,16.27Z" transform="translate(-0.12 5.35)"/><path class="b" d="M8.93,23.72s1.51-2.95-2.31-3.44a2.07,2.07,0,0,0-.74,3.28,2,2,0,0,0,1.75,1.8C7.72,25.39,8.8,25.78,8.93,23.72Z" transform="translate(-0.12 5.35)"/><path class="b" d="M4.47,23.46s3.3-.21,1.78-3.74a2.07,2.07,0,0,0-3.2,1,2,2,0,0,0-.65,2.43C2.41,23.27,2.63,24.4,4.47,23.46Z" transform="translate(-0.12 5.35)"/><path class="b" d="M2,19.74s1.41,3,4.13.28A2.07,2.07,0,0,0,4,17.42a2,2,0,0,0-2.5.28C1.47,17.75.49,18.37,2,19.74Z" transform="translate(-0.12 5.35)"/><circle class="e" cx="6.45" cy="25.36" r="0.7"/><path class="b" d="M17.42,29s-.15,3.31-3.71,1.85a2.07,2.07,0,0,1,1-3.22,2,2,0,0,1,2.41-.7C17.19,26.89,18.33,27.09,17.42,29Z" transform="translate(-0.12 5.35)"/><path class="b" d="M18.33,30.93s-1.56-2.92-4.14-.07a2.07,2.07,0,0,0,2.27,2.48,2,2,0,0,0,2.48-.41C19,32.88,20,32.21,18.33,30.93Z" transform="translate(-0.12 5.35)"/><path class="b" d="M14.91,26.71s2.4,2.28-1,4a2.07,2.07,0,0,1-1.8-2.84,2,2,0,0,1,1.05-2.28C13.2,25.54,14.1,24.81,14.91,26.71Z" transform="translate(-0.12 5.35)"/><path class="b" d="M16.89,34.16s1.51-2.95-2.31-3.44A2.07,2.07,0,0,0,13.84,34a2,2,0,0,0,1.75,1.8C15.67,35.84,16.76,36.23,16.89,34.16Z" transform="translate(-0.12 5.35)"/><path class="b" d="M12.43,33.9s3.3-.21,1.78-3.74a2.07,2.07,0,0,0-3.2,1,2,2,0,0,0-.65,2.43C10.37,33.71,10.59,34.85,12.43,33.9Z" transform="translate(-0.12 5.35)"/><path class="b" d="M10,30.19s1.41,3,4.13.28A2.07,2.07,0,0,0,12,27.87a2,2,0,0,0-2.5.28C9.42,28.2,8.45,28.82,10,30.19Z" transform="translate(-0.12 5.35)"/><circle class="f" cx="14.41" cy="35.8" r="0.7"/><path class="b" d="M8.54,36.7S8.39,40,4.83,38.55a2.07,2.07,0,0,1,1-3.22,2,2,0,0,1,2.41-.7C8.32,34.64,9.45,34.84,8.54,36.7Z" transform="translate(-0.12 5.35)"/><path class="b" d="M9.45,38.68s-1.56-2.92-4.14-.07a2.07,2.07,0,0,0,2.27,2.48,2,2,0,0,0,2.48-.41C10.13,40.64,11.07,40,9.45,38.68Z" transform="translate(-0.12 5.35)"/><path class="b" d="M6,34.47s2.4,2.28-1,4a2.07,2.07,0,0,1-1.8-2.84,2,2,0,0,1,1-2.28C4.32,33.29,5.22,32.56,6,34.47Z" transform="translate(-0.12 5.35)"/><path class="b" d="M8,41.92s1.51-3-2.31-3.44A2.07,2.07,0,0,0,5,41.76a2,2,0,0,0,1.75,1.8C6.8,43.59,7.88,44,8,41.92Z" transform="translate(-0.12 5.35)"/><path class="b" d="M3.55,41.66s3.3-.21,1.78-3.74a2.07,2.07,0,0,0-3.2,1,2,2,0,0,0-.65,2.43C1.49,41.47,1.71,42.6,3.55,41.66Z" transform="translate(-0.12 5.35)"/><path class="b" d="M1.12,37.94s1.41,3,4.13.28a2.07,2.07,0,0,0-2.14-2.6,2,2,0,0,0-2.5.28C.55,36-.43,36.58,1.12,37.94Z" transform="translate(-0.12 5.35)"/><circle class="g" cx="5.53" cy="43.56" r="0.7"/><path class="b" d="M18.5,44.12s-.15,3.31-3.71,1.85a2.07,2.07,0,0,1,1-3.22,2,2,0,0,1,2.41-.7C18.27,42.06,19.41,42.26,18.5,44.12Z" transform="translate(-0.12 5.35)"/><path class="b" d="M19.4,46.1s-1.56-2.92-4.14-.07a2.07,2.07,0,0,0,2.27,2.48A2,2,0,0,0,20,48.1C20.08,48.06,21,47.39,19.4,46.1Z" transform="translate(-0.12 5.35)"/><path class="b" d="M16,41.89s2.4,2.28-1,4a2.07,2.07,0,0,1-1.8-2.84,2,2,0,0,1,1.05-2.28C14.28,40.71,15.17,40,16,41.89Z" transform="translate(-0.12 5.35)"/><path class="b" d="M18,49.34s1.51-3-2.31-3.44a2.07,2.07,0,0,0-.74,3.28A2,2,0,0,0,16.67,51C16.75,51,17.84,51.4,18,49.34Z" transform="translate(-0.12 5.35)"/><path class="b" d="M13.51,49.08s3.3-.21,1.78-3.74a2.07,2.07,0,0,0-3.2,1,2,2,0,0,0-.65,2.43C11.44,48.89,11.66,50,13.51,49.08Z" transform="translate(-0.12 5.35)"/><path class="b" d="M11.08,45.36s1.41,3,4.13.28A2.07,2.07,0,0,0,13.07,43a2,2,0,0,0-2.5.28C10.5,43.37,9.52,44,11.08,45.36Z" transform="translate(-0.12 5.35)"/><circle class="h" cx="15.49" cy="50.98" r="0.7"/><path class="b" d="M17.39-1.69S17.24,1.62,13.68.16a2.07,2.07,0,0,1,1-3.22,2,2,0,0,1,2.41-.7C17.16-3.75,18.3-3.55,17.39-1.69Z" transform="translate(-0.12 5.35)"/><path class="b" d="M18.3.29S16.74-2.63,14.16.22A2.07,2.07,0,0,0,16.43,2.7a2,2,0,0,0,2.48-.41C19,2.25,19.92,1.58,18.3.29Z" transform="translate(-0.12 5.35)"/><path class="b" d="M14.88-3.92s2.4,2.28-1,4a2.07,2.07,0,0,1-1.8-2.84,2,2,0,0,1,1-2.28C13.17-5.09,14.07-5.83,14.88-3.92Z" transform="translate(-0.12 5.35)"/><path class="b" d="M16.86,3.53S18.37.58,14.55.09a2.07,2.07,0,0,0-.74,3.28,2,2,0,0,0,1.75,1.8C15.65,5.21,16.73,5.6,16.86,3.53Z" transform="translate(-0.12 5.35)"/><path class="b" d="M12.4,3.27s3.3-.21,1.78-3.74a2.07,2.07,0,0,0-3.2,1A2,2,0,0,0,10.33,3C10.34,3.08,10.56,4.21,12.4,3.27Z" transform="translate(-0.12 5.35)"/><path class="b" d="M10-.44s1.41,3,4.13.28A2.07,2.07,0,0,0,12-2.76a2,2,0,0,0-2.5.28C9.4-2.43,8.42-1.81,10-.44Z" transform="translate(-0.12 5.35)"/><circle class="i" cx="14.38" cy="5.17" r="0.7"/></svg>